# xmcd CD database file
#
# Track frame offsets:
#	150
#	17703
#	35021
#	51578
#	70624
#	87023
#	103929
#	116855
#	130287
#	149098
#	165633
#	177752
#	193162
#	212927
#	226566
#
# Disc length: 3233 seconds
#
# Revision: 3
# Processed by: cddbd v1.5PL3 Copyright (c) Steve Scherf et al.
# Submitted via: CDex 1.51
#
DISCID=dd0c9f0f
DTITLE=Kenny Rogers - Original Gold - CD1
DYEAR=1998
DGENRE=Country
TTITLE0=Lady
TTITLE1=We've got tonight
TTITLE2=Crazy
TTITLE3=She believes in me
TTITLE4=You decorated my life
TTITLE5=Desperado
TTITLE6=You are so beautiful
TTITLE7=I wish I could hurt that way again
TTITLE8=So in love with you
TTITLE9=Don't fall in love with a dreamer
TTITLE10=Heavenly sunshine
TTITLE11=Love love love
TTITLE12=Through the years
TTITLE13=What are we doin' in love
TTITLE14=Just the way you are
EXTD=YEAR: 1998
EXTT0=
EXTT1=
EXTT2=
EXTT3=
EXTT4=
EXTT5=
EXTT6=
EXTT7=
EXTT8=
EXTT9=
EXTT10=
EXTT11=
EXTT12=
EXTT13=
EXTT14=
PLAYORDER=
